# xmcd
#
# Track frame offsets:
# 150
# 18052
# 36055
# 54622
# 65055
# 89535
# 105037
# 123135
# 138762
# 150690
#
# Disc length: 2232 seconds
#
#
# Revision: 0
# Processed by: cddbd v1.5.2PL0 Copyright (c) Steve Scherf et al.
# Submitted via: Nero 7, 11, 10, 0 
#
DISCID=7208b60a
DTITLE=The Bob Griffin Trio - Piano, Bass, Drums
DYEAR=1994
DGENRE=Blues
TTITLE0=Trippin' Out
TTITLE1=Supersonic Sister
TTITLE2=Emerald Evening
TTITLE3=Blood Red Roses
TTITLE4=Dixie Chimes
TTITLE5=Triangulation
TTITLE6=Zum Gali Gali
TTITLE7=Where I'm At
TTITLE8=Above All the Rest
TTITLE9=April Avenue
EXTD=
EXTT0=Trippin' Out
EXTT1=Supersonic Sister
EXTT2=Emerald Evening
EXTT3=Blood Red Roses
EXTT4=Dixie Chimes
EXTT5=Triangulation
EXTT6=Zum Gali Gali
EXTT7=Where I'm At
EXTT8=Above All the Rest
EXTT9=April Avenue
PLAYORDER=
